<svg width="84" height="84" viewBox="0 0 84 84" fill="none" xmlns="http://www.w3.org/2000/svg">
<g filter="url(#filter0_d_190_243)">
<rect x="14" y="14" width="56" height="56" rx="28" fill="url(#paint0_linear_190_243)" fill-opacity="0.7" shape-rendering="crispEdges"/>
<rect x="14.5" y="14.5" width="55" height="55" rx="27.5" stroke="url(#paint1_linear_190_243)" shape-rendering="crispEdges"/>
<path d="M42 47.333C44.2091 47.333 46 45.5421 46 43.333C46 41.1239 44.2091 39.333 42 39.333C39.7909 39.333 38 41.1239 38 43.333C38 45.5421 39.7909 47.333 42 47.333Z" stroke="white" stroke-width="1.5"/>
<path d="M28.667 43.8187C28.667 39.7321 28.667 37.6894 29.6657 36.2227C30.0997 35.5854 30.6552 35.0399 31.3003 34.6174C32.2603 33.9867 33.463 33.7614 35.3043 33.6814C36.183 33.6814 36.939 33.0281 37.111 32.1814C37.2424 31.5612 37.584 31.0054 38.0779 30.608C38.5718 30.2105 39.1877 29.9958 39.8217 30.0001H44.179C45.4963 30.0001 46.631 30.9134 46.8897 32.1814C47.0617 33.0281 47.8177 33.6814 48.6963 33.6814C50.5363 33.7614 51.739 33.9881 52.7003 34.6174C53.347 35.0414 53.903 35.5867 54.335 36.2227C55.3337 37.6894 55.3337 39.7321 55.3337 43.8187C55.3337 47.9054 55.3337 49.9467 54.335 51.4147C53.9009 52.0521 53.3454 52.5976 52.7003 53.0201C51.2057 54.0001 49.1243 54.0001 44.963 54.0001H39.0377C34.8763 54.0001 32.795 54.0001 31.3003 53.0201C30.6556 52.5971 30.1006 52.0511 29.667 51.4134C29.3773 50.9819 29.164 50.5038 29.0363 50.0001M51.3337 39.3334H50.0003" stroke="white" stroke-width="1.5" stroke-linecap="round"/>
</g>
<defs>
<filter id="filter0_d_190_243" x="0" y="0" width="84" height="84" filterUnits="userSpaceOnUse" color-interpolation-filters="sRGB">
<feFlood flood-opacity="0" result="BackgroundImageFix"/>
<feColorMatrix in="SourceAlpha" type="matrix" values="0 0 0 0 0 0 0 0 0 0 0 0 0 0 0 0 0 0 127 0" result="hardAlpha"/>
<feOffset/>
<feGaussianBlur stdDeviation="7"/>
<feComposite in2="hardAlpha" operator="out"/>
<feColorMatrix type="matrix" values="0 0 0 0 0 0 0 0 0 0 0 0 0 0 0 0 0 0 0.25 0"/>
<feBlend mode="normal" in2="BackgroundImageFix" result="effect1_dropShadow_190_243"/>
<feBlend mode="normal" in="BackgroundImageFix" in2="effect1_dropShadow_190_243" result="BackgroundImageFix"/>
<feBlend mode="normal" in="SourceGraphic" in2="BackgroundImageFix" result="shape"/>
</filter>
<linearGradient id="paint0_linear_190_243" x1="45.92" y1="26.88" x2="58.24" y2="53.76" gradientUnits="userSpaceOnUse">
<stop stop-color="#FBB202"/>
<stop offset="1" stop-color="#1E78F5"/>
</linearGradient>
<linearGradient id="paint1_linear_190_243" x1="42" y1="14" x2="60.48" y2="68.32" gradientUnits="userSpaceOnUse">
<stop stop-color="#FBB202"/>
<stop offset="1" stop-color="#1E78F5"/>
</linearGradient>
</defs>
</svg>
