<svg width="24" height="24" viewBox="0 0 24 24" fill="none" xmlns="http://www.w3.org/2000/svg">
<path d="M8.1 6.03751C8.1 6.48751 7.725 6.86251 7.275 6.86251H3.6375C3.1875 6.86251 2.8125 6.48751 2.8125 6.03751V5.02501C2.8125 4.57501 3.1875 4.20001 3.6375 4.20001H7.275C7.725 4.20001 8.1 4.57501 8.1 5.02501V6.03751ZM22.7625 5.96251C22.7625 6.18751 22.575 6.41251 22.3125 6.41251H20.3625C20.1375 6.41251 19.9125 6.22501 19.9125 5.96251V5.43751C19.9125 5.21251 20.1 4.98751 20.3625 4.98751H22.3125C22.5375 4.98751 22.7625 5.17501 22.7625 5.43751V5.96251ZM24 18.8625C24 19.9875 23.1 20.8875 21.975 20.8875H2.025C0.9 20.8875 0 19.9875 0 18.8625V18.2625H24V18.8625Z" fill="#212528"/>
<path d="M0 7.53751C0 6.41251 0.9 5.51251 2.025 5.51251H21.9375C23.0625 5.51251 23.9625 6.41251 23.9625 7.53751V8.13751H0V7.53751Z" fill="#51575B"/>
<path d="M0 8.0625H24V18.675H0V8.0625Z" fill="#3E4347"/>
<path d="M20.5125 6.74998H8.47498L9.67498 2.69998C9.78748 2.47498 10.275 2.09998 10.575 2.02498C12.4125 1.49998 16.5375 1.49998 18.375 2.02498C18.675 2.09998 19.1625 2.47498 19.275 2.69998L20.5125 6.74998Z" fill="#51575B"/>
<path d="M19.9125 11.1H9.03748L10.125 5.625C10.2 5.325 10.6875 4.8375 10.95 4.725C12.6 4.05 16.35 4.05 18 4.725C18.2625 4.8375 18.7125 5.325 18.825 5.625L19.9125 11.1Z" fill="#3E4347"/>
<path d="M22.725 14.1C22.725 18.675 19.0125 22.35 14.475 22.35C9.93747 22.35 6.22498 18.675 6.22498 14.1C6.22498 9.56247 9.93747 5.84998 14.475 5.84998C19.05 5.84998 22.725 9.56247 22.725 14.1Z" fill="#788287"/>
<path d="M21.825 14.1C21.825 18.15 18.525 21.45 14.475 21.45C10.425 21.45 7.125 18.15 7.125 14.1C7.125 10.05 10.425 6.75 14.475 6.75C18.525 6.7875 21.825 10.05 21.825 14.1Z" fill="#212528"/>
<path d="M14.4749 20.0625C17.7679 20.0625 20.4375 17.393 20.4375 14.1C20.4375 10.807 17.7679 8.13751 14.4749 8.13751C11.182 8.13751 8.51245 10.807 8.51245 14.1C8.51245 17.393 11.182 20.0625 14.4749 20.0625Z" fill="#3E4347"/>
<path d="M14.475 17.325C16.2561 17.325 17.7 15.8811 17.7 14.1C17.7 12.3189 16.2561 10.875 14.475 10.875C12.6939 10.875 11.25 12.3189 11.25 14.1C11.25 15.8811 12.6939 17.325 14.475 17.325Z" fill="#212528"/>
<path opacity="0.5" d="M18.8625 11.5875C18.8625 12.6 18.0375 13.425 17.025 13.425C16.0125 13.425 15.1875 12.6 15.1875 11.5875C15.1875 10.575 16.0125 9.75002 17.025 9.75002C18.0375 9.71252 18.8625 10.575 18.8625 11.5875Z" fill="#F5F5F5"/>
<path opacity="0.5" d="M13.35 16.425C13.992 16.425 14.5125 15.9046 14.5125 15.2625C14.5125 14.6205 13.992 14.1 13.35 14.1C12.708 14.1 12.1875 14.6205 12.1875 15.2625C12.1875 15.9046 12.708 16.425 13.35 16.425Z" fill="#F5F5F5"/>
<path opacity="0.5" d="M11.2875 18.0375C11.681 18.0375 12 17.7186 12 17.325C12 16.9315 11.681 16.6125 11.2875 16.6125C10.8939 16.6125 10.575 16.9315 10.575 17.325C10.575 17.7186 10.8939 18.0375 11.2875 18.0375Z" fill="#F5F5F5"/>
<path d="M5.62502 16.9875C5.62502 17.4375 5.25002 17.8125 4.80002 17.8125H1.35002C0.900024 17.8125 0.525024 17.4375 0.525024 16.9875V9.71251C0.525024 9.26251 0.900024 8.88751 1.35002 8.88751H4.80002C5.25002 8.88751 5.62502 9.26251 5.62502 9.71251V16.9875Z" fill="#636C72"/>
<path d="M3.78752 8.17502C4.45027 8.17502 4.98752 7.63777 4.98752 6.97502C4.98752 6.31228 4.45027 5.77502 3.78752 5.77502C3.12478 5.77502 2.58752 6.31228 2.58752 6.97502C2.58752 7.63777 3.12478 8.17502 3.78752 8.17502Z" fill="#212528"/>
</svg>
