<svg width="24" height="24" viewBox="0 0 24 24" fill="none" xmlns="http://www.w3.org/2000/svg">
<path d="M6.66745 7.63686C6.56057 8.77686 6.48557 10.7944 7.1587 11.6531C7.1587 11.6531 6.84182 9.43686 9.68245 6.65623C10.8262 5.53686 11.0906 4.01436 10.6912 2.87248C10.4643 2.22561 10.0499 1.69123 9.68995 1.31811C9.47995 1.09873 9.6412 0.736856 9.94682 0.749981C11.7956 0.832481 14.7918 1.34623 16.0649 4.54123C16.6237 5.94373 16.6649 7.39311 16.3987 8.86686C16.2299 9.80811 15.6299 11.9006 16.9987 12.1575C17.9756 12.3412 18.4481 11.565 18.6599 11.0062C18.7481 10.7737 19.0537 10.7156 19.2187 10.9012C20.8687 12.7781 21.0093 14.9887 20.6681 16.8919C20.0081 20.5706 16.2824 23.2481 12.5812 23.2481C7.95745 23.2481 4.27682 20.6025 3.32245 15.8137C2.93807 13.8806 3.13307 10.0556 6.11432 7.35561C6.33557 7.15311 6.69745 7.33311 6.66745 7.63686Z" fill="url(#paint0_radial_148_1423)"/>
<path d="M14.2706 14.5162C12.5663 12.3225 13.3294 9.81934 13.7475 8.82184C13.8038 8.69059 13.6538 8.56683 13.5356 8.64746C12.8025 9.14621 11.3006 10.32 10.6013 11.9718C9.65438 14.205 9.72188 15.2981 10.2825 16.6331C10.62 17.4375 10.2281 17.6081 10.0313 17.6381C9.84001 17.6681 9.66376 17.5406 9.52313 17.4075C9.11866 17.019 8.83038 16.5256 8.69063 15.9825C8.66063 15.8662 8.50876 15.8343 8.43938 15.93C7.91438 16.6556 7.64251 17.82 7.62938 18.6431C7.58813 21.1875 9.69001 23.25 12.2325 23.25C15.4369 23.25 17.7713 19.7062 15.93 16.7437C15.3956 15.8812 14.8931 15.3168 14.2706 14.5162Z" fill="url(#paint1_radial_148_1423)"/>
<defs>
<radialGradient id="paint0_radial_148_1423" cx="0" cy="0" r="1" gradientTransform="matrix(-13.2351 -0.0574402 -0.094366 21.7161 11.6654 23.3064)" gradientUnits="userSpaceOnUse">
<stop offset="0.314" stop-color="#FF9800"/>
<stop offset="0.662" stop-color="#FF6D00"/>
<stop offset="0.972" stop-color="#F44336"/>
</radialGradient>
<radialGradient id="paint1_radial_148_1423" cx="0" cy="0" r="1" gradientTransform="matrix(-0.139872 13.8474 10.4212 0.10525 12.4087 10.1359)" gradientUnits="userSpaceOnUse">
<stop offset="0.214" stop-color="#FFF176"/>
<stop offset="0.328" stop-color="#FFF27D"/>
<stop offset="0.487" stop-color="#FFF48F"/>
<stop offset="0.672" stop-color="#FFF7AD"/>
<stop offset="0.793" stop-color="#FFF9C4"/>
<stop offset="0.822" stop-color="#FFF8BD" stop-opacity="0.804"/>
<stop offset="0.863" stop-color="#FFF6AB" stop-opacity="0.529"/>
<stop offset="0.91" stop-color="#FFF38D" stop-opacity="0.209"/>
<stop offset="0.941" stop-color="#FFF176" stop-opacity="0"/>
</radialGradient>
</defs>
</svg>
