<svg width="28" height="28" viewBox="0 0 28 28" fill="none" xmlns="http://www.w3.org/2000/svg">
<path opacity="0.987" fill-rule="evenodd" clip-rule="evenodd" d="M12.6157 1.85631C13.8845 1.71456 14.6352 1.71456 15.9985 1.85631C18.4116 2.21348 20.6486 3.32891 22.386 5.04131C21.212 6.15105 20.0534 7.27699 18.9105 8.41881C16.7218 6.56381 14.2788 6.13565 11.5815 7.13431C9.60283 8.04431 8.225 9.51898 7.448 11.5583C6.17827 10.613 4.92508 9.6457 3.689 8.65681C3.60309 8.6116 3.50498 8.59504 3.409 8.60956C5.3725 4.82373 8.44083 2.57206 12.614 1.85456" fill="#F44336"/>
<path opacity="0.997" fill-rule="evenodd" clip-rule="evenodd" d="M3.40551 8.6091C3.50468 8.59393 3.5986 8.60968 3.68726 8.65635C4.92335 9.64524 6.17653 10.6125 7.44626 11.5578C7.24646 12.3524 7.12051 13.1638 7.07001 13.9816C7.11318 14.7726 7.2386 15.549 7.44626 16.3108L3.50001 19.4521C1.78151 15.8611 1.75001 12.2468 3.40551 8.6091Z" fill="#FFC107"/>
<path opacity="0.999" fill-rule="evenodd" clip-rule="evenodd" d="M22.1988 23.2568C20.97 22.1732 19.6836 21.1567 18.3453 20.2118C19.6869 19.2645 20.5013 17.9648 20.7883 16.3128H14.2135V11.7471C18.0052 11.7156 21.7951 11.7476 25.5833 11.8433C26.3019 15.7458 25.4718 19.2645 23.093 22.3993C22.8101 22.7 22.5105 22.9862 22.1988 23.2568Z" fill="#448AFF"/>
<path opacity="0.993" fill-rule="evenodd" clip-rule="evenodd" d="M7.44625 16.3135C8.88125 19.88 11.5121 21.5448 15.3388 21.308C16.413 21.1836 17.4429 20.8084 18.3453 20.2125C19.6846 21.1598 20.9691 22.1748 22.1988 23.2575C20.2504 25.0083 17.7662 26.0471 15.1515 26.2045C14.5574 26.252 13.9606 26.252 13.3665 26.2045C8.91217 25.6795 5.62333 23.429 3.5 19.453L7.44625 16.3135Z" fill="#28C76F"/>
</svg>
