<svg width="56" height="56" viewBox="0 0 56 56" fill="none" xmlns="http://www.w3.org/2000/svg">
<path d="M51.3333 28H4.66667M28 4.66669V51.3334M30.3333 28C30.3333 30.4754 31.3167 32.8493 33.067 34.5997C34.8173 36.35 37.1913 37.3334 39.6667 37.3334M25.6667 28C25.6667 30.4754 24.6833 32.8493 22.933 34.5997C21.1827 36.35 18.8087 37.3334 16.3333 37.3334" stroke="white" stroke-width="2.4" stroke-linecap="round"/>
<path d="M28 23.415C28.0013 21.7256 28.5668 20.0849 29.6066 18.7534C30.6465 17.4219 32.1012 16.4757 33.74 16.065C37.4803 15.1317 40.8707 18.5197 39.935 22.2624C39.5243 23.9012 38.5782 25.3559 37.2466 26.3958C35.9151 27.4356 34.2745 28.0011 32.585 28.0024H28M28 23.415V28.0024M28 23.415C27.9987 21.7256 27.4332 20.0849 26.3934 18.7534C25.3535 17.4219 23.8988 16.4757 22.26 16.065C18.5197 15.1317 15.1293 18.5197 16.065 22.2624C16.4757 23.9012 17.4218 25.3559 18.7534 26.3958C20.0849 27.4356 21.7255 28.0011 23.415 28.0024H28" stroke="white" stroke-width="2.4"/>
<path d="M4.66667 28C4.66667 17.0007 4.66667 11.501 8.08267 8.08269C11.5033 4.66669 17.0007 4.66669 28 4.66669C38.9993 4.66669 44.499 4.66669 47.915 8.08269C51.3333 11.5034 51.3333 17.0007 51.3333 28C51.3333 38.9994 51.3333 44.499 47.915 47.915C44.5013 51.3334 38.9993 51.3334 28 51.3334C17.0007 51.3334 11.501 51.3334 8.08267 47.915C4.66667 44.5014 4.66667 38.9994 4.66667 28Z" stroke="white" stroke-width="2.4"/>
</svg>
